HIERARCHY
ROOT Hips
{
	OFFSET -3.958830 18.904000 13.208200
	CHANNELS 6 Xposition Yposition Zposition Zrotation Yrotation Xrotation 
	JOINT LHipJoint
	{
		OFFSET 0.000000 0.000000 0.000000
		CHANNELS 3 Zrotation Yrotation Xrotation
		JOINT LeftUpLeg
		{
			OFFSET 1.800000 -1.400000 0.085000
			CHANNELS 3 Zrotation Yrotation Xrotation
			JOINT LeftLeg
			{
				OFFSET 2.215000 -6.000000 0.000000
				CHANNELS 3 Zrotation Yrotation Xrotation
				JOINT LeftFoot
				{
					OFFSET 2.500000 -6.900000 0.000000
					CHANNELS 3 Zrotation Yrotation Xrotation
					JOINT LeftToeBase
					{
						OFFSET 0.200000 -0.500000 1.950000
						CHANNELS 3 Zrotation Yrotation Xrotation
						End Site
						{
							OFFSET 0.000000 0.000000 0.000000
						}
					}
				}
			}
		}
	}
	JOINT RHipJoint
	{
		OFFSET 0.000000 0.000000 0.000000
		CHANNELS 3 Zrotation Yrotation Xrotation
		JOINT RightUpLeg
		{
			OFFSET -1.800000 -1.400000 0.085000
			CHANNELS 3 Zrotation Yrotation Xrotation
			JOINT RightLeg
			{
				OFFSET -2.215000 -6.000000 0.000000
				CHANNELS 3 Zrotation Yrotation Xrotation
				JOINT RightFoot
				{
					OFFSET -2.500000 -6.900000 0.000000
					CHANNELS 3 Zrotation Yrotation Xrotation
					JOINT RightToeBase
					{
						OFFSET -0.200000 -0.500000 1.950000
						CHANNELS 3 Zrotation Yrotation Xrotation
						End Site
						{
							OFFSET 0.000000 0.000000 0.000000
						}
					}
				}
			}
		}
	}
	JOINT LowerBack
	{
		OFFSET 0.000000 0.000000 0.000000
		CHANNELS 3 Zrotation Yrotation Xrotation
		JOINT Spine
		{
			OFFSET -0.087000 1.940000 -0.288900
			CHANNELS 3 Zrotation Yrotation Xrotation
			JOINT Spine1
			{
				OFFSET 0.000000 1.950000 0.060000
				CHANNELS 3 Zrotation Yrotation Xrotation
				JOINT Neck
				{
					OFFSET 0.000000 0.000000 0.000000
					CHANNELS 3 Zrotation Yrotation Xrotation
					JOINT Neck1
					{
						OFFSET 0.000000 1.600000 0.340000
						CHANNELS 3 Zrotation Yrotation Xrotation
						JOINT Head
						{
							OFFSET 0.000000 1.667000 -0.240000
							CHANNELS 3 Zrotation Yrotation Xrotation
							End Site
							{
								OFFSET 0.000000 0.000000 0.000000
							}
						}
					}
				}
				JOINT LeftShoulder
				{
					OFFSET 0.000000 0.000000 0.000000
					CHANNELS 3 Zrotation Yrotation Xrotation
					JOINT LeftArm
					{
						OFFSET 2.700000 1.550000 -0.730000
						CHANNELS 3 Zrotation Yrotation Xrotation
						JOINT LeftForeArm
						{
							OFFSET 5.450000 0.000000 0.000000
							CHANNELS 3 Zrotation Yrotation Xrotation
							JOINT LeftHand
							{
								OFFSET 3.450000 0.000000 0.000000
								CHANNELS 3 Zrotation Yrotation Xrotation
								JOINT LeftHandIndex1
								{
									OFFSET 0.750000 0.000000 0.000000
									CHANNELS 3 Zrotation Yrotation Xrotation
									End Site
									{
										OFFSET 0.000000 0.000000 0.000000
									}
								}
							}
						}
					}
				}
				JOINT RightShoulder
				{
					OFFSET 0.000000 0.000000 0.000000
					CHANNELS 3 Zrotation Yrotation Xrotation
					JOINT RightArm
					{
						OFFSET -2.700000 1.550000 -0.730000
						CHANNELS 3 Zrotation Yrotation Xrotation
						JOINT RightForeArm
						{
							OFFSET -5.450000 0.000000 0.000000
							CHANNELS 3 Zrotation Yrotation Xrotation
							JOINT RightHand
							{
								OFFSET -3.450000 0.000000 0.000000
								CHANNELS 3 Zrotation Yrotation Xrotation
								JOINT RightHandIndex1
								{
									OFFSET -0.750000 0.000000 0.000000
									CHANNELS 3 Zrotation Yrotation Xrotation
									End Site
									{
										OFFSET 0.000000 0.000000 0.000000
									}
								}
							}
						}
					}
				}
			}
		}
	}
}
MOTION
Frames: 13
Frame Time: 0.016667
0.638330 17.398090 -3.858780 -5.335654 -10.594105 1.738137 -15.380401 13.855774 3.651072 1.521185 1.335678 9.350211 -7.215126 5.402691 -1.326458 0.335678 4.644579 2.851308 0.630470 0.423520 0.762660 18.255813 -8.772766 3.683658 11.625324 3.293263 -16.629662 9.707547 -2.203678 -3.362407 -0.429380 -1.476003 3.802164 0.009210 -0.613330 0.032650 -3.210090 -5.448212 -8.761300 15.928315 -5.214064 7.220828 -5.452125 -4.126160 1.502830 7.276998 -2.311253 -19.237570 -23.451826 16.109488 69.916491 -3.482500 7.735450 -10.493610 -41.302821 -22.527719 9.286894 -51.878591 -3.649294 -1.937129 6.389487 -9.733494 -1.361373 -2.945644 2.889147 0.845560 -0.495390 0.564450 -0.046060 27.726872 23.577880 12.883045 65.963648 -10.515872 -11.828741 -13.402889 7.133158 -0.393389 2.636731 -1.089216 0.100060 -0.030680 -0.299920 -0.329940 
0.638690 17.397380 -3.836250 -5.476964 -10.747443 1.895989 -15.390258 13.882190 3.644509 1.534046 1.313496 9.208074 -7.114347 5.422560 -1.018260 0.316559 4.641405 2.853091 0.619500 0.399770 0.771830 18.240215 -8.770046 3.705509 11.727586 3.326644 -16.553656 9.854248 -2.211917 -3.410045 -0.428652 -1.475444 3.799210 0.001050 -0.616650 0.026310 -3.168334 -5.483114 -8.789188 15.859542 -5.105820 7.189101 -5.226988 -4.018008 1.130126 7.380691 -2.190067 -19.243336 -23.068429 15.993970 70.347127 -3.501360 7.793080 -10.466700 -41.219731 -22.305050 9.236329 -52.130160 -3.046429 -2.067905 5.991372 -9.986249 -1.364058 -2.943630 2.867758 0.860770 -0.499460 0.562190 -0.058210 27.506232 23.346543 12.882952 66.153887 -10.786985 -12.002549 -13.286221 7.458944 -0.428899 2.632448 -1.071614 0.084770 -0.026300 -0.292530 -0.343910 
0.645700 17.396460 -3.788880 -5.781358 -10.809416 2.281980 -15.409182 13.935886 3.633257 1.600847 1.260894 8.929783 -6.862060 5.423588 -0.675147 0.303244 4.616362 2.857369 0.601260 0.368690 0.780780 18.214651 -8.746046 3.731084 11.806821 3.388657 -16.494731 10.275272 -2.237371 -3.434040 -0.426916 -1.480009 3.793320 -0.017550 -0.630160 0.021980 -3.100484 -5.591223 -8.825312 15.996593 -5.038014 6.967739 -4.914553 -3.988333 0.333969 7.726686 -2.034539 -19.112753 -22.590575 15.777496 70.886073 -4.163210 8.000550 -10.276400 -41.305107 -21.672795 9.043200 -52.607046 -1.992917 -2.171814 5.355895 -9.942969 -1.285224 -2.943776 2.847096 0.869930 -0.505210 0.561220 -0.077780 27.007492 22.721863 12.785287 66.553032 -11.215485 -12.277814 -13.188939 7.881061 -0.469321 2.637483 -1.051230 0.077820 -0.034420 -0.282820 -0.358260 
0.653830 17.397100 -3.728590 -6.142192 -11.171420 2.746594 -15.406903 13.964458 3.615476 1.500989 1.247149 8.691136 -6.519534 5.400209 -0.351028 0.275571 4.585893 2.867436 0.578110 0.336560 0.768960 18.212836 -8.742725 3.746997 11.878564 3.451069 -16.451771 10.682756 -2.301705 -3.243825 -0.419581 -1.491022 3.798489 -0.031060 -0.623190 0.009330 -3.097503 -5.633881 -8.812256 16.508053 -4.927472 6.564128 -4.687937 -3.869365 -0.586258 7.857197 -2.110102 -19.008894 -22.723986 16.024967 71.259787 -4.086020 8.114760 -9.890750 -41.218183 -20.911280 8.828173 -53.511969 -0.685615 -2.390365 4.795146 -10.071169 -1.255825 -2.949259 2.811808 0.884530 -0.504280 0.550750 -0.087540 26.747876 22.052878 12.702308 66.919133 -11.778534 -12.597101 -13.335184 8.262517 -0.518171 2.628439 -1.024326 0.057520 -0.024260 -0.265870 -0.368700 
0.666670 17.395900 -3.660800 -6.659969 -11.426862 3.358871 -15.402669 13.993060 3.586723 1.418116 1.203978 8.397835 -5.856070 5.314784 -0.119979 0.251596 4.545649 2.885299 0.535900 0.278020 0.751000 18.217194 -8.726904 3.766202 12.059814 3.551731 -16.435117 10.948568 -2.337591 -3.189539 -0.401015 -1.505408 3.799909 -0.061110 -0.606050 0.006870 -3.110023 -5.688830 -8.792957 17.213633 -4.884563 6.010634 -4.533008 -3.878642 -1.408945 8.117766 -2.128105 -18.778377 -22.323936 15.892000 71.187038 -4.563060 8.434960 -8.951030 -41.276810 -20.129700 8.677811 -54.275522 0.744038 -2.758655 4.288427 -10.322292 -1.255314 -2.971269 2.786103 0.885300 -0.489010 0.528580 -0.105290 26.292929 21.348943 12.543025 67.292015 -12.057005 -12.857144 -13.490019 8.635322 -0.575428 2.625946 -1.005683 0.038900 -0.026760 -0.238610 -0.378340 
0.675940 17.395320 -3.590220 -7.044491 -11.801635 3.973809 -15.408318 14.039536 3.569021 1.198821 1.174948 8.044608 -5.128401 5.203396 0.184643 0.239334 4.471942 2.905031 0.514880 0.246430 0.739880 18.206359 -8.719351 3.786350 12.201585 3.634921 -16.444351 11.007672 -2.363478 -3.050431 -0.391672 -1.503962 3.799894 -0.084710 -0.607630 0.013900 -3.081195 -5.764371 -8.792286 17.625123 -4.792952 5.544359 -4.186321 -3.799801 -2.513260 8.354615 -2.213375 -18.582152 -22.295583 15.968136 71.336689 -4.964980 8.713050 -8.205180 -41.231468 -19.042202 8.400479 -55.020013 2.268711 -3.055570 3.728566 -10.308831 -1.206505 -2.981156 2.779637 0.885590 -0.486350 0.523020 -0.115380 25.890671 20.412531 12.401077 67.534754 -12.647768 -13.257325 -13.544110 9.523760 -0.719323 2.623585 -0.995653 0.041180 -0.045920 -0.226100 -0.381300 
0.685670 17.388620 -3.512710 -7.078682 -12.176063 4.874978 -15.434009 14.095904 3.559207 0.581903 1.203581 7.383249 -4.558626 5.079348 0.526819 0.230382 4.368384 2.940534 0.481040 0.198570 0.713390 18.174911 -8.708084 3.794585 12.060726 3.735598 -16.862511 11.156925 -2.373520 -2.898032 -0.370891 -1.478293 3.817042 -0.120490 -0.598350 0.019230 -2.991958 -5.881733 -8.788618 17.553303 -4.731810 4.965860 -3.636136 -3.713818 -4.645275 8.628820 -2.578446 -17.881420 -22.874816 16.307086 70.840074 -5.304200 8.983380 -7.406630 -40.399629 -16.434348 7.527086 -56.525136 3.904835 -3.342832 3.101688 -10.137140 -1.146086 -3.008437 2.756081 0.885340 -0.483170 0.511540 -0.120520 24.819864 18.027180 11.822595 68.170431 -13.333778 -13.821516 -13.776456 10.723219 -0.918943 2.629725 -0.969374 0.040300 -0.062590 -0.209690 -0.378240 
0.697740 17.376230 -3.435140 -7.267549 -12.282071 5.812965 -15.437997 14.130039 3.528533 0.200319 1.175027 6.693894 -4.139052 4.981402 0.867621 0.254000 4.262554 2.986930 0.451130 0.166960 0.680280 18.171286 -8.691768 3.802626 12.105639 3.855038 -17.271943 11.197947 -2.350295 -2.836542 -0.351105 -1.454903 3.838607 -0.155090 -0.579770 0.023280 -2.980623 -5.970655 -8.742810 17.939599 -4.882983 4.330373 -3.401899 -3.807339 -6.567482 8.765485 -3.035605 -17.107476 -23.342498 16.515311 69.546665 -5.338970 9.308550 -6.250590 -39.181572 -13.786361 6.700421 -57.961327 5.282164 -3.598878 2.413281 -9.818483 -1.043003 -3.036690 2.750940 0.859170 -0.474450 0.497390 -0.110740 23.490153 15.589135 11.160920 68.752231 -13.677949 -14.209532 -13.584191 11.866624 -1.090360 2.649765 -0.954953 0.052860 -0.082240 -0.208410 -0.357830 
0.704880 17.369490 -3.365950 -7.478476 -12.573656 6.500392 -15.441715 14.138503 3.508079 -0.046259 1.153384 6.270845 -3.791295 4.896101 1.090012 0.276858 4.187215 3.021696 0.429160 0.148740 0.658020 18.166935 -8.693332 3.819180 12.196976 3.932255 -17.409289 11.265263 -2.328022 -2.895646 -0.341289 -1.453460 3.847578 -0.176020 -0.564290 0.025260 -2.965802 -5.976859 -8.726463 18.024163 -4.814160 3.814461 -2.930718 -3.753996 -7.453484 8.752664 -3.191633 -16.838387 -23.190285 16.489826 68.930517 -5.195850 9.630740 -5.083260 -38.343945 -12.574549 6.465665 -58.955465 6.316436 -3.769873 2.063403 -9.332390 -0.941743 -3.059676 2.746859 0.834600 -0.463930 0.489310 -0.101540 22.783329 14.525127 10.896887 69.102315 -13.878003 -14.540025 -13.579305 12.832643 -1.259940 2.659415 -0.955849 0.061460 -0.094400 -0.211720 -0.341400 
0.716620 17.357870 -3.294280 -7.856793 -13.175120 7.226456 -15.422507 14.118226 3.479774 -0.389951 1.142147 5.934420 -3.375389 4.791572 1.266826 0.291478 4.110475 3.060019 0.413740 0.134920 0.638680 18.190996 -8.701755 3.827687 12.322053 4.035632 -17.568785 11.475091 -2.343483 -2.787239 -0.332381 -1.457024 3.862492 -0.192030 -0.545610 0.019790 -3.029585 -5.925491 -8.658949 18.734975 -4.669026 3.288026 -2.849125 -3.569017 -8.343562 8.656291 -3.472420 -16.483757 -23.226964 16.634927 68.088032 -4.653710 9.867630 -4.249000 -37.074443 -11.066934 6.139798 -60.366918 7.163171 -3.978783 2.004604 -8.900373 -0.881990 -3.085059 2.731689 0.818250 -0.455710 0.478190 -0.088630 21.681607 13.271876 10.539000 69.851474 -13.770451 -14.902752 -13.750313 13.838558 -1.466335 2.661900 -0.952652 0.062710 -0.096660 -0.217810 -0.328480 
0.729300 17.345610 -3.223100 -8.121344 -13.589052 7.915274 -15.415690 14.103050 3.478241 -0.700077 1.138302 5.640241 -3.216139 4.710128 1.222054 0.291846 4.058249 3.085210 0.396540 0.115720 0.621780 18.196289 -8.714008 3.834005 12.154182 4.121276 -17.798131 12.022579 -2.393201 -2.650879 -0.327601 -1.470647 3.869459 -0.206630 -0.533760 0.013790 -3.046566 -5.879968 -8.633623 19.112572 -4.563148 2.902305 -2.495202 -3.365155 -9.437341 8.570179 -3.748436 -16.099947 -23.124287 16.682288 67.669953 -4.520600 10.162000 -3.997400 -36.017955 -9.255473 5.704004 -61.394619 8.222363 -4.336152 1.370547 -8.893354 -0.861204 -3.106196 2.704688 0.817650 -0.452470 0.469800 -0.083970 20.812750 11.814834 10.102524 69.822606 -13.724035 -14.653933 -12.973290 13.823790 -1.343237 2.674504 -0.927316 0.055840 -0.094730 -0.214190 -0.325380 
0.742680 17.335160 -3.151980 -8.359097 -13.833039 8.584751 -15.405139 14.093505 3.474582 -0.904580 1.100666 5.312998 -3.092207 4.633551 1.229531 0.295406 4.012754 3.106099 0.382040 0.092200 0.606900 18.202745 -8.730423 3.840256 11.933100 4.209020 -18.049907 12.611359 -2.459863 -2.446552 -0.325922 -1.493006 3.865352 -0.225830 -0.526190 0.021750 -3.070873 -5.834732 -8.610697 19.520867 -4.497767 2.485674 -2.272457 -3.202639 -10.442642 8.522019 -3.982132 -15.808609 -22.858098 16.505360 67.263354 -4.619170 10.332360 -3.571870 -34.721314 -7.501188 5.398828 -62.534970 9.322372 -4.918998 0.854299 -9.442739 -0.922680 -3.122080 2.693623 0.817460 -0.449300 0.464830 -0.079160 19.592585 10.456641 9.736343 70.446268 -13.615857 -14.734694 -12.848869 14.290068 -1.379245 2.681594 -0.920791 0.056970 -0.108050 -0.211280 -0.321280 
0.762080 17.327520 -3.080420 -8.866153 -13.905786 9.092108 -15.375381 14.090881 3.438928 -0.815325 1.030097 5.048274 -2.925810 4.608281 1.548343 0.299258 3.971903 3.122420 0.376080 0.088420 0.596750 18.233001 -8.736434 3.846351 11.907876 4.257835 -17.995287 13.090911 -2.498991 -2.401467 -0.327214 -1.527112 3.862198 -0.231560 -0.528130 0.014320 -3.163120 -5.807924 -8.547614 20.661482 -4.465254 2.170048 -2.561262 -3.085639 -11.027822 8.528450 -4.198318 -15.552259 -22.689846 16.358059 66.703783 -4.729810 10.487710 -3.360030 -33.885774 -6.284781 5.117131 -63.108044 10.021751 -5.081046 0.348818 -9.047926 -0.850052 -3.132417 2.685776 0.808920 -0.450040 0.458500 -0.074760 18.569461 9.561213 9.501867 70.951034 -13.396896 -14.813462 -12.704132 14.764712 -1.437776 2.685750 -0.919639 0.058710 -0.115670 -0.216350 -0.318110 
